<?xml version="1.0" encoding="UTF-8"?>
<svg id="OBJECTS" xmlns="http://www.w3.org/2000/svg" viewBox="0 0 500 500">
  <defs>
    <style>
      .cls-1 {
        fill: #fff;
      }

      .cls-2 {
        fill: #777d15;
      }

      .cls-3 {
        fill: #453f3f;
      }

      .cls-4 {
        fill: #f59876;
      }

      .cls-5 {
        fill: #efad1a;
      }

      .cls-6 {
        fill: #bb4000;
      }

      .cls-7 {
        fill: #ef6931;
      }

      .cls-8 {
        opacity: .8;
      }

      .cls-9 {
        fill: #c7cad8;
      }

      .cls-10 {
        fill: #0c0b0b;
      }

      .cls-11 {
        fill: #9a9fb2;
      }

      .cls-12 {
        fill: #e6e9f4;
      }

      .cls-13 {
        fill: #ffc2a9;
      }

      .cls-14 {
        fill: #424208;
      }
    </style>
  </defs>
  <g>
    <g>
      <path class="cls-12" d="m256.31,53.59s-84.99-33.82-125.9,16.95c-40.91,50.77,58.63,117.07-44.13,167.71-72.57,35.76-35.45,132.52,41.38,120.09,87.42-14.13,27.99-63.55,221-34.14,95.6,14.57,166.24-188.59-92.35-270.61Z"/>
      <path class="cls-12" d="m339.07,73.63c3.97-4.86,2.26-12.12-3.31-15.02-4.38-2.28-9.91-3.53-14.03,1.05-7.98,8.86,3.99,14.85,10.32,16.62,2.69.75,5.78-1.14,7.01-2.65Z"/>
      <path class="cls-12" d="m74.27,227.93c-3.21-5.39-10.62-6.26-15.24-2.02-3.64,3.34-6.7,8.11-3.81,13.55,5.6,10.53,15.32,1.32,19.15-4.03,1.62-2.27.9-5.83-.1-7.5Z"/>
      <path class="cls-12" d="m451.05,272.43s8-17.49-.38-24.47c-8.38-6.99-18.39,14.3-15,23.82,3.39,9.53,13.19,6.91,15.38.65Z"/>
    </g>
    <ellipse class="cls-9" cx="251.47" cy="459.09" rx="225.47" ry="9.49"/>
  </g>
  <g>
    <g>
      <path class="cls-9" d="m370.18,112.59c21.74-24.88,4.67-61.83,4.67-61.83,0,0-30.45,18.58-44.36,41.06-13.91,22.47,1.02,46.81,1.02,46.81,0,0,20.17-4.86,38.67-26.04Z"/>
      <path class="cls-11" d="m331.6,139.62c-.13.01-.27,0-.4-.05-.52-.17-.8-.73-.63-1.25,7.57-22.67,37.31-74.6,37.61-75.12.27-.47.88-.64,1.35-.37.47.27.64.88.37,1.35-.3.52-29.94,52.28-37.45,74.76-.13.39-.47.64-.85.67Z"/>
      <path class="cls-11" d="m355.72,88.92c-.4.03-.79-.18-.98-.56-.24-.49-.03-1.08.46-1.32l15.62-7.5c.49-.24,1.08-.03,1.32.46.24.49.03,1.08-.46,1.32l-15.62,7.5c-.11.05-.23.08-.34.09Z"/>
      <path class="cls-11" d="m352.19,95.55c-.43.04-.84-.21-1.01-.62l-5.44-13.78c-.2-.51.05-1.08.56-1.28.51-.2,1.08.05,1.28.56l5.44,13.78c.2.51-.05,1.08-.56,1.28-.09.04-.19.06-.28.07Z"/>
      <path class="cls-11" d="m348.41,102.79c-.5.04-.96-.3-1.06-.81-.1-.54.26-1.05.79-1.15l20.19-3.71c.54-.1,1.05.26,1.15.79.1.54-.26,1.05-.79,1.15l-20.19,3.71s-.06,0-.09.01Z"/>
      <path class="cls-11" d="m345.06,109.37c-.36.03-.73-.14-.93-.47l-9.93-16.11c-.29-.47-.14-1.08.32-1.36.47-.29,1.08-.14,1.36.32l9.93,16.11c.29.47.14,1.08-.32,1.36-.14.08-.28.13-.43.14Z"/>
      <path class="cls-11" d="m339.39,121c-.44.04-.86-.22-1.01-.65-.19-.51.08-1.08.59-1.27l19.44-7.07c.51-.19,1.08.08,1.27.59.19.51-.08,1.08-.59,1.27l-19.44,7.07c-.08.03-.17.05-.25.06Z"/>
      <path class="cls-11" d="m336.49,127.34c-.41.04-.82-.19-.99-.59l-6.71-15.58c-.22-.5.02-1.08.52-1.3.5-.22,1.08.02,1.3.52l6.71,15.58c.22.5-.02,1.08-.52,1.3-.1.04-.2.07-.31.08Z"/>
    </g>
    <g>
      <path class="cls-11" d="m152.32,244.72c-20.51-22.75-40.38-49.63-51.73-67.74-14.83-23.65-21.49-42.99-19.81-57.49.11-.96.98-1.65,1.94-1.54.96.11,1.65.98,1.54,1.94-2.94,25.34,22.18,69.72,72.38,124.28l-4.31.54Z"/>
      <path class="cls-9" d="m89.12,154.8s-11.52,9.03-26.61-11.84c0,0,21.56-8.83,26.61,11.84Z"/>
      <path class="cls-9" d="m96.35,165.96s-9.66-11,10.34-27.23c0,0,10.01,21.03-10.34,27.23Z"/>
      <path class="cls-9" d="m82.82,130.67s-12.78-7.15.67-29.12c0,0,16.45,16.49-.67,29.12Z"/>
      <path class="cls-9" d="m110.19,188.87s-7.78,12.4-29.05-2.14c0,0,17.3-15.6,29.05,2.14Z"/>
      <path class="cls-9" d="m119.27,199.13s-11.42-9.16,5.48-28.61c0,0,13.5,18.98-5.48,28.61Z"/>
      <path class="cls-9" d="m130.31,214.41s-7.55,12.54-29.08-1.59c0,0,17-15.92,29.08,1.59Z"/>
      <path class="cls-9" d="m138.84,226.21s14.11-3.92,6.25-28.45c0,0-19.89,12.12-6.25,28.45Z"/>
    </g>
    <g>
      <path class="cls-11" d="m322.16,411.51c19.32-23.76,37.8-51.63,48.21-70.29,13.6-24.38,19.27-44.03,16.85-58.42-.16-.95-1.06-1.6-2.02-1.44-.95.16-1.6,1.06-1.44,2.02,4.23,25.15-18.6,70.76-65.94,127.81l4.33.32Z"/>
      <path class="cls-9" d="m380.69,318.48s11.97,8.44,25.97-13.18c0,0-21.98-7.72-25.97,13.18Z"/>
      <path class="cls-9" d="m374.04,330s9.09-11.48-11.72-26.67c0,0-8.93,21.51,11.72,26.67Z"/>
      <path class="cls-9" d="m385.75,294.06s12.39-7.79-2.15-29.05c0,0-15.59,17.31,2.15,29.05Z"/>
      <path class="cls-9" d="m361.39,353.58s8.41,11.99,28.9-3.62c0,0-18.07-14.7-28.9,3.62Z"/>
      <path class="cls-9" d="m352.84,364.29s10.94-9.73-6.93-28.29c0,0-12.51,19.65,6.93,28.29Z"/>
      <path class="cls-9" d="m342.59,380.12s8.18,12.14,28.97-3.07c0,0-17.79-15.04-28.97,3.07Z"/>
      <path class="cls-9" d="m334.68,392.33s-14.29-3.19-7.7-28.09c0,0,20.49,11.09,7.7,28.09Z"/>
    </g>
  </g>
  <g>
    <g>
      <path class="cls-11" d="m435.01,122.38c-3.59,0-7.08-.99-9.86-2.8l-8.12,2.02c-.26.06-.54-.03-.7-.25-.16-.21-.18-.5-.05-.74l3.84-6.85c-.54-1.3-.81-2.65-.81-4.03,0-3.41,1.65-6.6,4.66-8.99,2.96-2.36,6.88-3.65,11.05-3.65s8.09,1.3,11.05,3.65c3,2.39,4.66,5.59,4.66,8.99s-1.65,6.6-4.66,8.99c-2.96,2.36-6.88,3.65-11.05,3.65Zm-9.74-4.2c.13,0,.27.04.38.12,2.6,1.76,5.93,2.73,9.36,2.73,7.92,0,14.36-5.07,14.36-11.3s-6.44-11.3-14.36-11.3-14.36,5.07-14.36,11.3c0,1.3.28,2.58.83,3.79.09.2.08.42-.03.61l-3.24,5.78,6.89-1.72c.05-.01.11-.02.16-.02Z"/>
      <g>
        <path class="cls-11" d="m441.91,112.87c-1.56,0-2.83-1.27-2.83-2.83s1.27-2.83,2.83-2.83,2.83,1.27,2.83,2.83-1.27,2.83-2.83,2.83Zm0-4.35c-.84,0-1.52.68-1.52,1.52s.68,1.52,1.52,1.52,1.52-.68,1.52-1.52-.68-1.52-1.52-1.52Z"/>
        <path class="cls-11" d="m435.02,112.87c-1.56,0-2.83-1.27-2.83-2.83s1.27-2.83,2.83-2.83,2.83,1.27,2.83,2.83-1.27,2.83-2.83,2.83Zm0-4.35c-.84,0-1.52.68-1.52,1.52s.68,1.52,1.52,1.52,1.52-.68,1.52-1.52-.68-1.52-1.52-1.52Z"/>
        <path class="cls-11" d="m428.13,112.87c-1.56,0-2.83-1.27-2.83-2.83s1.27-2.83,2.83-2.83,2.83,1.27,2.83,2.83-1.27,2.83-2.83,2.83Zm0-4.35c-.84,0-1.52.68-1.52,1.52s.68,1.52,1.52,1.52,1.52-.68,1.52-1.52-.68-1.52-1.52-1.52Z"/>
      </g>
    </g>
    <g>
      <path class="cls-11" d="m107.2,84.69c-5.99,0-10.86-4.87-10.86-10.86s4.87-10.86,10.86-10.86,10.86,4.87,10.86,10.86-4.87,10.86-10.86,10.86Zm0-20.5c-5.32,0-9.65,4.33-9.65,9.65s4.33,9.65,9.65,9.65,9.65-4.33,9.65-9.65-4.33-9.65-9.65-9.65Z"/>
      <path class="cls-11" d="m107.2,74.44c-.15,0-.29-.05-.4-.15-.13-.12-.2-.28-.2-.45v-7.29c0-.33.27-.61.61-.61s.61.27.61.61v6.61l5.54-.66c.33-.04.63.2.67.53.04.33-.2.63-.53.67l-6.22.74s-.05,0-.07,0Z"/>
    </g>
    <path class="cls-11" d="m66.16,208.28h-7.3c-.33,0-.61-.27-.61-.61v-5.66h-5.66c-.33,0-.61-.27-.61-.61v-7.3c0-.33.27-.61.61-.61h5.66v-5.66c0-.33.27-.61.61-.61h7.3c.33,0,.61.27.61.61v5.66h5.66c.33,0,.61.27.61.61v7.3c0,.33-.27.61-.61.61h-5.66v5.66c0,.33-.27.61-.61.61Zm-6.7-1.21h6.09v-5.66c0-.33.27-.61.61-.61h5.66v-6.09h-5.66c-.33,0-.61-.27-.61-.61v-5.66h-6.09v5.66c0,.33-.27.61-.61.61h-5.66v6.09h5.66c.33,0,.61.27.61.61v5.66Z"/>
    <path class="cls-11" d="m449.22,131.71h-31.53c-.33,0-.61-.27-.61-.61s.27-.61.61-.61h31.53c.33,0,.61.27.61.61s-.27.61-.61.61Z"/>
    <g>
      <path class="cls-11" d="m299.64,60.92c-2.4,0-4.35-1.95-4.35-4.35s1.95-4.35,4.35-4.35,4.35,1.95,4.35,4.35-1.95,4.35-4.35,4.35Zm0-7.49c-1.73,0-3.14,1.41-3.14,3.14s1.41,3.14,3.14,3.14,3.14-1.41,3.14-3.14-1.41-3.14-3.14-3.14Z"/>
      <path class="cls-11" d="m286.78,57.16h-88.97c-.33,0-.61-.27-.61-.61s.27-.61.61-.61h88.97c.33,0,.61.27.61.61s-.27.61-.61.61Z"/>
    </g>
  </g>
  <g>
    <g>
      <path class="cls-10" d="m344.81,86.07v352.48c0,5.5-2.22,10.48-5.81,14.1-3.62,3.65-8.65,5.91-14.2,5.91h-175.53c-11.05,0-20-8.95-20-20V86.07c0-7.78,4.44-14.52,10.93-17.83,2.73-1.39,5.81-2.17,9.07-2.17h175.53c11.05,0,20,8.95,20,20Z"/>
      <g>
        <path class="cls-3" d="m344.81,163.86h5.14c.47,0,.84-.38.84-.84v-36.23c0-.47-.38-.84-.84-.84h-5.14v37.92Z"/>
        <path class="cls-3" d="m129.28,176.04h-6.29c-.57,0-1.03-.46-1.03-1.03v-44.5c0-.57.46-1.03,1.03-1.03h6.29v46.57Z"/>
        <path class="cls-3" d="m129.28,228.93h-6.29c-.57,0-1.03-.46-1.03-1.03v-44.5c0-.57.46-1.03,1.03-1.03h6.29v46.57Z"/>
      </g>
      <path class="cls-9" d="m334.83,84.86v354.9c0,1.22-.25,2.39-.7,3.45-1.35,3.15-4.46,5.36-8.11,5.36h-177.95c-4.87,0-8.81-3.94-8.81-8.81V84.86c0-3.63,2.2-6.75,5.35-8.11,1.06-.45,2.23-.7,3.46-.7h177.95c4.86,0,8.81,3.95,8.81,8.81Z"/>
      <path class="cls-1" d="m334.83,376.15v63.61c0,1.22-.25,2.39-.7,3.45-1.35,3.15-4.46,5.36-8.11,5.36h-177.95c-4.87,0-8.81-3.94-8.81-8.81v-63.66c.65-7.26,6.75-12.95,14.18-12.95h167.21c7.45,0,13.55,5.71,14.18,13Z"/>
      <g>
        <rect class="cls-5" x="161.42" y="387.18" width="64.82" height="13.58" rx="3.06" ry="3.06"/>
        <rect class="cls-2" x="161.42" y="417.01" width="64.82" height="13.58" rx="3.06" ry="3.06"/>
        <rect class="cls-7" x="250.47" y="387.18" width="64.82" height="13.58" rx="3.06" ry="3.06"/>
        <rect class="cls-9" x="250.47" y="417.01" width="64.82" height="13.58" rx="3.06" ry="3.06"/>
      </g>
      <path class="cls-9" d="m284.3,373.65h-91.88c-1.17,0-2.12-.95-2.12-2.12h0c0-1.17.95-2.12,2.12-2.12h91.88c1.17,0,2.12.95,2.12,2.12h0c0,1.17-.95,2.12-2.12,2.12Z"/>
      <path class="cls-1" d="m139.26,84.86v16.53h195.57v-16.53c0-4.86-3.95-8.81-8.81-8.81h-177.95c-1.23,0-2.4.25-3.46.7-3.15,1.36-5.35,4.48-5.35,8.11Z"/>
      <g>
        <path class="cls-2" d="m303.3,89.35c0,1.83-1.49,3.32-3.32,3.32s-3.32-1.49-3.32-3.32,1.49-3.32,3.32-3.32,3.32,1.49,3.32,3.32Z"/>
        <path class="cls-7" d="m314.88,89.35c0,1.83-1.49,3.32-3.32,3.32s-3.32-1.49-3.32-3.32,1.49-3.32,3.32-3.32,3.32,1.49,3.32,3.32Z"/>
        <path class="cls-10" d="m326.41,89.35c0,1.83-1.49,3.32-3.32,3.32s-3.32-1.49-3.32-3.32,1.49-3.32,3.32-3.32,3.32,1.49,3.32,3.32Z"/>
      </g>
      <path class="cls-10" d="m286.91,75.79l-4.87,4.87c-4.88,4.88-11.49,7.61-18.38,7.61h-53.2c-6.89,0-13.51-2.74-18.38-7.61l-4.83-4.83,99.66-.04Z"/>
      <rect class="cls-3" x="201.44" y="78.67" width="71.2" height="3.36" rx=".24" ry=".24"/>
    </g>
    <g>
      <g>
        <rect class="cls-11" x="157.7" y="200.3" width="162.63" height="68.07" rx="5.57" ry="5.57"/>
        <path class="cls-1" d="m159.4,196.54h151.48c3.08,0,5.57,2.5,5.57,5.57v56.92c0,3.08-2.5,5.57-5.57,5.57h-151.48c-3.08,0-5.57-2.5-5.57-5.57v-56.92c0-3.08,2.5-5.57,5.57-5.57Z"/>
        <g>
          <rect class="cls-7" x="217.38" y="211.32" width="89.61" height="6.06" rx="2.53" ry="2.53"/>
          <g>
            <path class="cls-9" d="m219.41,225.39h35.56c1.12,0,2.03.91,2.03,2.03v.8c0,1.12-.91,2.03-2.03,2.03h-35.56c-1.12,0-2.03-.91-2.03-2.03v-.8c0-1.12.91-2.03,2.03-2.03Z"/>
            <path class="cls-9" d="m219.41,246.61h35.56c1.12,0,2.03.91,2.03,2.03v.8c0,1.12-.91,2.03-2.03,2.03h-35.56c-1.12,0-2.03-.91-2.03-2.03v-.8c0-1.12.91-2.03,2.03-2.03Z"/>
            <path class="cls-9" d="m219.41,235.91h35.56c1.12,0,2.03.91,2.03,2.03v.8c0,1.12-.91,2.03-2.03,2.03h-35.56c-1.12,0-2.03-.91-2.03-2.03v-.8c0-1.12.91-2.03,2.03-2.03Z"/>
          </g>
          <g>
            <path class="cls-9" d="m269.4,225.39h35.56c1.12,0,2.03.91,2.03,2.03v.8c0,1.12-.91,2.03-2.03,2.03h-35.56c-1.12,0-2.03-.91-2.03-2.03v-.8c0-1.12.91-2.03,2.03-2.03Z"/>
            <path class="cls-9" d="m269.4,246.61h35.56c1.12,0,2.03.91,2.03,2.03v.8c0,1.12-.91,2.03-2.03,2.03h-35.56c-1.12,0-2.03-.91-2.03-2.03v-.8c0-1.12.91-2.03,2.03-2.03Z"/>
            <path class="cls-9" d="m269.4,235.91h35.56c1.12,0,2.03.91,2.03,2.03v.8c0,1.12-.91,2.03-2.03,2.03h-35.56c-1.12,0-2.03-.91-2.03-2.03v-.8c0-1.12.91-2.03,2.03-2.03Z"/>
          </g>
        </g>
        <g>
          <path class="cls-7" d="m186.04,252.4c-12.04,0-21.83-9.79-21.83-21.83s9.79-21.83,21.83-21.83,21.83,9.79,21.83,21.83-9.79,21.83-21.83,21.83Zm0-40.68c-10.39,0-18.85,8.46-18.85,18.85s8.46,18.85,18.85,18.85,18.85-8.46,18.85-18.85-8.46-18.85-18.85-18.85Z"/>
          <path class="cls-7" d="m186.04,232.06c-.36,0-.71-.13-.99-.38-.32-.28-.5-.69-.5-1.11v-14.46c0-.82.67-1.49,1.49-1.49s1.49.67,1.49,1.49v12.78l10.68-1.28c.82-.1,1.56.49,1.65,1.3.1.82-.48,1.56-1.3,1.65l-12.34,1.48c-.06,0-.12.01-.18.01Z"/>
        </g>
      </g>
      <g>
        <rect class="cls-11" x="157.7" y="116" width="162.63" height="68.07" rx="5.57" ry="5.57"/>
        <path class="cls-1" d="m159.4,112.24h151.48c3.08,0,5.57,2.5,5.57,5.57v56.92c0,3.08-2.5,5.57-5.57,5.57h-151.48c-3.08,0-5.57-2.5-5.57-5.57v-56.92c0-3.08,2.5-5.57,5.57-5.57Z"/>
        <rect class="cls-2" x="167.36" y="127.19" width="39.78" height="39.78" rx="7.55" ry="7.55"/>
        <path class="cls-1" d="m180.37,158.1c-.11,0-.23-.01-.34-.03-.58-.11-1.07-.47-1.34-.99l-3.83-7.33c-.49-.93-.13-2.08.81-2.57.93-.49,2.08-.13,2.57.81l2.7,5.17,18.06-16.03c.79-.7,1.99-.63,2.69.16.7.79.63,1.99-.16,2.69l-19.88,17.65c-.35.31-.8.48-1.27.48Z"/>
        <g>
          <rect class="cls-2" x="217.38" y="127.02" width="89.61" height="6.06" rx="2.53" ry="2.53"/>
          <g>
            <path class="cls-9" d="m219.41,141.09h35.56c1.12,0,2.03.91,2.03,2.03v.8c0,1.12-.91,2.03-2.03,2.03h-35.56c-1.12,0-2.03-.91-2.03-2.03v-.8c0-1.12.91-2.03,2.03-2.03Z"/>
            <rect class="cls-9" x="217.38" y="162.31" width="39.63" height="4.87" rx="2.03" ry="2.03"/>
            <path class="cls-9" d="m219.41,151.6h35.56c1.12,0,2.03.91,2.03,2.03v.8c0,1.12-.91,2.03-2.03,2.03h-35.56c-1.12,0-2.03-.91-2.03-2.03v-.8c0-1.12.91-2.03,2.03-2.03Z"/>
          </g>
          <g>
            <path class="cls-9" d="m269.4,141.09h35.56c1.12,0,2.03.91,2.03,2.03v.8c0,1.12-.91,2.03-2.03,2.03h-35.56c-1.12,0-2.03-.91-2.03-2.03v-.8c0-1.12.91-2.03,2.03-2.03Z"/>
            <path class="cls-9" d="m269.4,162.31h35.56c1.12,0,2.03.91,2.03,2.03v.8c0,1.12-.91,2.03-2.03,2.03h-35.56c-1.12,0-2.03-.91-2.03-2.03v-.8c0-1.12.91-2.03,2.03-2.03Z"/>
            <path class="cls-9" d="m269.4,151.6h35.56c1.12,0,2.03.91,2.03,2.03v.8c0,1.12-.91,2.03-2.03,2.03h-35.56c-1.12,0-2.03-.91-2.03-2.03v-.8c0-1.12.91-2.03,2.03-2.03Z"/>
          </g>
        </g>
      </g>
      <g>
        <rect class="cls-11" x="157.7" y="286.58" width="162.63" height="68.07" rx="5.57" ry="5.57"/>
        <path class="cls-1" d="m159.4,282.82h151.48c3.08,0,5.57,2.5,5.57,5.57v56.92c0,3.08-2.5,5.57-5.57,5.57h-151.48c-3.08,0-5.57-2.5-5.57-5.57v-56.92c0-3.08,2.5-5.57,5.57-5.57Z"/>
        <g>
          <rect class="cls-9" x="167.19" y="313.41" width="33.5" height="4.11" rx="1.72" ry="1.72"/>
          <rect class="cls-9" x="167.19" y="331.35" width="33.5" height="4.11" rx="1.72" ry="1.72"/>
          <rect class="cls-9" x="167.19" y="322.3" width="33.5" height="4.11" rx="1.72" ry="1.72"/>
        </g>
        <g>
          <rect class="cls-9" x="207.86" y="313.41" width="33.5" height="4.11" rx="1.72" ry="1.72"/>
          <rect class="cls-9" x="207.86" y="331.35" width="33.5" height="4.11" rx="1.72" ry="1.72"/>
          <rect class="cls-9" x="207.86" y="322.3" width="33.5" height="4.11" rx="1.72" ry="1.72"/>
        </g>
        <g>
          <path class="cls-5" d="m250.6,321.07c-.03,1.22.29,2.36.86,3.34.28.47.57.94.83,1.42l4.56,8.22,2.99-5.39c.79-1.43,1.65-2.82,2.49-4.23.56-.94.88-2.04.88-3.22,0-3.62-3.06-6.54-6.74-6.29-3.22.21-5.8,2.91-5.87,6.14Zm3.64-.6c0-1.47,1.19-2.66,2.66-2.66s2.66,1.19,2.66,2.66-1.19,2.66-2.66,2.66-2.66-1.19-2.66-2.66Z"/>
          <path class="cls-7" d="m269.19,319.29c.05-.2.09-.39.14-.59.17-.69.5-1.31.97-1.85.33-.39.72-.72,1.16-.97.6-.35,1.29-.2,1.73.34.8.96,1.59,1.93,2.38,2.89.48.6.4,1.41-.19,1.94-.43.38-.88.73-1.32,1.1-.06.05-.12.08-.17.11,1.06,2.84,2.85,5.03,5.42,6.61.31-.26.64-.53.96-.8.17-.14.33-.28.51-.41.52-.4,1.12-.43,1.65-.08.17.11.31.28.44.43.72.87,1.43,1.75,2.15,2.61.23.28.37.58.42.93-.01.13-.03.26-.04.39-.13.22-.21.47-.38.65-.42.42-.89.79-1.44,1.04-.65.29-1.32.47-2.03.41-.47-.04-.93-.14-1.39-.27-1.16-.32-2.22-.88-3.22-1.55-.99-.67-1.89-1.44-2.71-2.3-1.12-1.16-2.1-2.42-3-3.75-.71-1.05-1.32-2.15-1.72-3.36-.2-.61-.33-1.23-.38-1.87-.02-.26-.02-.52-.03-.77.03-.29.06-.59.09-.88Z"/>
          <path class="cls-2" d="m288.57,324.49c0,5.28,4.29,9.57,9.57,9.57s9.57-4.29,9.57-9.57-4.29-9.57-9.57-9.57-9.57,4.29-9.57,9.57Zm5.37,3.53c-.31-1.04-.48-2.17-.51-3.35h4.33v3.35h-3.81Zm2.26,5.05c-2.43-.55-4.5-2.09-5.73-4.28h2.91c.4,1.13.96,2.16,1.66,3.05.35.45.74.86,1.15,1.23Zm1.56-4.28v4.49c-.29-.17-1.21-.77-2.12-1.94-.59-.75-1.07-1.61-1.43-2.55h3.55Zm-3.34-9.01c1.02-2.26,2.52-3.65,3-4.06.11,0,.23-.02.34-.02v4.08h-3.34Zm-3.7,0c1.23-1.93,3.16-3.31,5.36-3.84-.43.46-.84.96-1.21,1.49-.51.74-.95,1.53-1.29,2.35h-2.86Zm2.72,4.12c.04-1.15.27-2.27.66-3.35h3.66v3.35h-4.32Zm-4.07,0c.08-1.17.39-2.3.91-3.35h3.01c-.37,1.09-.58,2.21-.62,3.35h-3.3Zm3.3.77c.03,1.18.19,2.3.48,3.35h-3.06c-.47-1.06-.72-2.19-.74-3.35h3.32Zm10.87,0h3.41c-.02,1.17-.27,2.29-.74,3.35h-3.15c.29-1.05.45-2.17.48-3.35Zm-5.01-4.89v-4.08c.08,0,.16,0,.24.01.33.28,1.14,1.01,1.94,2.17.41.6.77,1.23,1.07,1.89h-3.26Zm3.57.77c.39,1.08.62,2.21.66,3.35h-4.23v-3.35h3.57Zm.53-.77c-.34-.82-.78-1.61-1.29-2.35-.38-.54-.79-1.05-1.24-1.52,2.25.51,4.22,1.91,5.47,3.87h-2.95Zm.14,4.89c-.03,1.19-.2,2.32-.51,3.35h-3.73v-3.35h4.24Zm.77-.77c-.04-1.14-.25-2.27-.62-3.35h3.1c.53,1.05.84,2.18.91,3.35h-3.39Zm2.29,4.89c-1.24,2.2-3.4,3.78-5.85,4.3.42-.37.82-.79,1.18-1.25.7-.89,1.26-1.92,1.66-3.05h3Zm-3.83,0c-1.06,2.76-2.88,4.07-3.46,4.43v-4.43h3.46Z"/>
        </g>
        <g>
          <path class="cls-3" d="m178.02,298.24c0,4.2-2.69,6.65-6.65,6.65-1.42,0-2.81-.34-3.72-.94l1.46-2.83c.7.5,1.42.63,2.18.63,1.37,0,2.33-.7,2.61-2.04-.6.43-1.37.67-2.38.67-2.19,0-4.11-1.49-4.11-3.84,0-2.57,2.16-4.2,4.87-4.2,3.43,0,5.76,1.97,5.76,5.9Zm-4.25-1.89c0-.75-.51-1.22-1.23-1.22s-1.23.46-1.23,1.22.51,1.23,1.23,1.23,1.23-.48,1.23-1.23Z"/>
          <path class="cls-3" d="m178.86,297.26c0-1.32.98-2.19,2.26-2.19s2.26.87,2.26,2.19-.98,2.23-2.26,2.23-2.26-.93-2.26-2.23Zm0,5.3c0-1.32.98-2.19,2.26-2.19s2.26.87,2.26,2.19-.98,2.23-2.26,2.23-2.26-.93-2.26-2.23Z"/>
          <path class="cls-3" d="m193.84,300.78c0,2.06-1.65,4.11-5.48,4.11-1.65,0-3.44-.36-4.73-1.08l1.37-2.98c1.03.6,2.21.87,3.22.87.91,0,1.56-.31,1.56-.93,0-.51-.39-.82-1.42-.82h-1.59v-2.49l1.77-1.8h-4.28v-3.05h8.95v2.48l-2.23,2.26c1.89.46,2.88,1.75,2.88,3.41Z"/>
          <path class="cls-3" d="m194.74,298.62c0-3.98,2.26-6.27,5.43-6.27s5.43,2.3,5.43,6.27-2.26,6.27-5.43,6.27-5.43-2.3-5.43-6.27Zm6.8,0c0-2.31-.58-3.03-1.37-3.03s-1.37.72-1.37,3.03.58,3.03,1.37,3.03,1.37-.72,1.37-3.03Z"/>
          <path class="cls-3" d="m221.38,299.58v5.04h-3.6v-1.23c-.45.94-1.34,1.41-2.66,1.41-2.3,0-3.48-1.3-3.48-2.91,0-1.82,1.37-2.83,4.28-2.83h1.56c-.12-.72-.67-1.1-1.77-1.1-.84,0-1.78.27-2.4.74l-1.23-2.55c1.1-.69,2.76-1.06,4.22-1.06,3.22,0,5.07,1.39,5.07,4.51Zm-3.87,1.99v-.65h-.96c-.82,0-1.18.27-1.18.79,0,.43.34.75.93.75.53,0,1.01-.27,1.22-.89Z"/>
          <path class="cls-3" d="m239.2,299.27v5.35h-3.87v-4.68c0-1.17-.43-1.61-1.05-1.61-.69,0-1.22.46-1.22,1.71v4.58h-3.87v-4.68c0-1.17-.39-1.61-1.05-1.61-.69,0-1.22.46-1.22,1.71v4.58h-3.87v-9.37h3.68v.87c.7-.7,1.63-1.05,2.66-1.05,1.22,0,2.28.45,2.93,1.42.75-.91,1.85-1.42,3.14-1.42,2.13,0,3.74,1.25,3.74,4.2Z"/>
        </g>
        <path class="cls-5" d="m252.65,297.62h53c1.13,0,2.05.92,2.05,2.05v.81c0,1.13-.92,2.05-2.05,2.05h-53c-1.13,0-2.05-.92-2.05-2.05v-.81c0-1.13.92-2.05,2.05-2.05Z"/>
      </g>
    </g>
  </g>
  <g>
    <rect class="cls-10" x="56.76" y="416.87" width="66.33" height="5.25" rx=".49" ry=".49"/>
    <rect class="cls-3" x="57.85" y="358.65" width="64.29" height="11.1" rx="1.83" ry="1.83"/>
    <g>
      <g>
        <g>
          <path class="cls-2" d="m73.99,311.43s-25.57-5.05-32.7-22.89c-7.14-17.84,18.95-31.22,32.7-21.64,14.71,10.25,0,44.53,0,44.53Z"/>
          <path class="cls-10" d="m89.2,358.29c-.23,0-.42-.17-.46-.4-2.45-16.57-12.32-40.41-20.17-57.49-8.51-18.52-16.55-33.3-16.63-33.45-.12-.22-.04-.51.18-.63.22-.12.51-.04.63.18.08.15,8.13,14.96,16.66,33.51,7.88,17.13,17.78,41.06,20.25,57.74.04.25-.14.49-.39.53-.02,0-.05,0-.07,0Z"/>
        </g>
        <path class="cls-10" d="m73.03,309.7c-.16,0-.32-.09-.41-.24-11.12-20.71-29.18-35.74-29.36-35.89-.2-.16-.23-.45-.06-.65.16-.2.45-.23.65-.06.18.15,18.38,15.29,29.59,36.17.12.23.04.51-.19.63-.07.04-.14.06-.22.06Z"/>
        <path class="cls-10" d="m73.54,311.18c-.13,0-.26-.06-.35-.16-8.11-9.55-16.42-15.48-21.96-18.78-6-3.57-10.14-4.91-10.18-4.92-.24-.08-.38-.34-.3-.58.08-.24.34-.38.58-.3.17.05,4.26,1.37,10.35,4.99,5.61,3.33,14.01,9.34,22.22,18.99.17.19.14.49-.05.65-.09.07-.19.11-.3.11Z"/>
        <path class="cls-10" d="m71.29,305.75c-.19,0-.37-.12-.44-.31-6.23-18.3-3.94-40.53-3.92-40.75.03-.25.25-.44.51-.41.25.03.44.26.41.51-.02.22-2.29,22.26,3.87,40.36.08.24-.05.5-.29.59-.05.02-.1.03-.15.03Z"/>
        <path class="cls-10" d="m72.86,309.37c-.22,0-.42-.16-.46-.39-1.91-11.58-.44-21.03,1.12-26.91,1.7-6.39,3.83-9.99,3.91-10.14.13-.22.41-.29.63-.16.22.13.29.41.16.63-.02.04-2.16,3.66-3.82,9.94-1.54,5.79-2.97,15.09-1.1,26.49.04.25-.13.49-.38.53-.03,0-.05,0-.08,0Z"/>
      </g>
      <g>
        <g>
          <path class="cls-2" d="m100.96,316.09s25.82-3.53,34-20.92c8.18-17.38-17.07-32.28-31.36-23.54-15.29,9.36-2.64,44.45-2.64,44.45Z"/>
          <path class="cls-10" d="m91.17,356.77h0c-.26,0-.46-.21-.46-.47.1-8.53,1.96-18.25,5.53-28.89,2.85-8.5,6.79-17.59,11.71-27.04,8.38-16.08,16.81-27.77,16.89-27.89.15-.21.44-.25.65-.1.21.15.25.44.1.65-.08.12-8.48,11.76-16.83,27.78-7.69,14.77-16.9,36.39-17.13,55.51,0,.25-.21.46-.46.46Z"/>
        </g>
        <path class="cls-10" d="m102.05,314.42c-.08,0-.17-.02-.24-.07-.22-.13-.29-.42-.15-.64,12.43-20.18,31.48-34.21,31.68-34.35.21-.15.5-.11.65.1.15.21.11.5-.1.65-.19.14-19.11,14.07-31.43,34.09-.09.14-.24.22-.39.22Z"/>
        <path class="cls-10" d="m101.46,315.87c-.11,0-.23-.04-.32-.13-.18-.18-.19-.47-.01-.65,8.76-9.15,17.51-14.65,23.3-17.64,6.29-3.25,10.45-4.32,10.63-4.37.25-.06.5.09.56.34s-.09.5-.33.56c-.04.01-4.25,1.1-10.46,4.31-5.73,2.96-14.37,8.4-23.03,17.45-.09.09-.21.14-.33.14Z"/>
        <path class="cls-10" d="m104.03,310.58c-.06,0-.12-.01-.17-.03-.24-.1-.35-.37-.25-.6,7.23-17.7,6.26-39.83,6.25-40.06-.01-.26.18-.47.44-.48.25-.01.47.18.48.44.01.22.98,22.56-6.32,40.45-.07.18-.25.29-.43.29Z"/>
        <path class="cls-10" d="m102.25,314.11s-.07,0-.1-.01c-.25-.06-.41-.3-.35-.55,2.55-11.27,1.67-20.63.47-26.51-1.29-6.37-3.21-10.11-3.23-10.15-.12-.23-.03-.51.2-.62.23-.12.51-.03.62.2.08.16,1.99,3.87,3.31,10.36,1.21,5.97,2.12,15.49-.47,26.93-.05.21-.24.36-.45.36Z"/>
      </g>
      <g>
        <g>
          <path class="cls-2" d="m91.02,282.45s-21.88-14.16-21.9-33.37c-.02-19.21,29.16-21.98,38.39-7.99,9.87,14.97-16.49,41.36-16.49,41.36Z"/>
          <path class="cls-10" d="m87.96,331.64s-.07,0-.11-.01c-.25-.06-.4-.31-.34-.56,3.86-16.3,3.52-42.1,2.55-60.87-1.05-20.36-3.04-37.06-3.06-37.23-.03-.25.15-.48.4-.51.25-.03.48.15.51.4.02.17,2.01,16.9,3.07,37.29.97,18.83,1.31,44.73-2.57,61.13-.05.21-.24.36-.45.36Z"/>
        </g>
        <path class="cls-10" d="m90.94,280.52c-.23,0-.43-.17-.46-.41-2.66-23.36-13.87-44-13.98-44.21-.12-.22-.04-.51.18-.63.22-.12.51-.04.63.18.11.21,11.41,21.01,14.09,44.55.03.25-.15.48-.41.51-.02,0-.04,0-.05,0Z"/>
        <path class="cls-10" d="m90.86,282.09c-.19,0-.37-.12-.44-.32-4-11.87-9.52-20.46-13.44-25.57-4.25-5.54-7.61-8.31-7.64-8.34-.2-.16-.23-.45-.06-.65.16-.2.45-.23.65-.06.14.11,3.45,2.85,7.77,8.47,3.97,5.17,9.56,13.86,13.61,25.87.08.24-.05.5-.29.59-.05.02-.1.02-.15.02Z"/>
        <path class="cls-10" d="m90.78,276.21s-.02,0-.02,0c-.26-.01-.45-.23-.44-.49.98-19.3,11.35-39.11,11.45-39.31.12-.23.4-.31.63-.19.23.12.31.4.19.63-.1.2-10.37,19.83-11.35,38.92-.01.25-.22.44-.46.44Z"/>
        <path class="cls-10" d="m90.9,280.15s-.07,0-.1-.01c-.25-.05-.41-.3-.35-.55,2.52-11.46,7.39-19.76,11.04-24.7,3.96-5.37,7.28-7.98,7.42-8.09.2-.16.49-.12.65.08.16.2.12.49-.08.65-.03.03-3.38,2.66-7.27,7.94-3.59,4.87-8.38,13.03-10.86,24.32-.05.22-.24.36-.45.36Z"/>
      </g>
      <path class="cls-7" d="m117.75,329.15l-.76,2.02-.48,1.28-1.38,3.67-.48,1.28-1.42,3.77-.48,1.28-6.09,16.18h-33.3l-6.09-16.18-.48-1.28-1.42-3.77-.48-1.28-1.38-3.67-.48-1.28-.76-2.02c-.52-1.39.5-2.87,1.98-2.87h51.55c1.48,0,2.51,1.48,1.98,2.87Z"/>
      <g>
        <polygon class="cls-6" points="116.99 331.18 116.51 332.46 63.48 332.46 63 331.18 116.99 331.18"/>
        <polygon class="cls-6" points="115.12 336.13 114.64 337.41 65.35 337.41 64.86 336.13 115.12 336.13"/>
        <polygon class="cls-6" points="113.22 341.19 112.74 342.47 67.25 342.47 66.77 341.19 113.22 341.19"/>
      </g>
    </g>
    <polygon class="cls-10" points="81.07 369.75 79.23 375.7 53.52 458.56 48.5 458.56 64.8 377.4 66.34 369.75 81.07 369.75"/>
    <polygon class="cls-10" points="131.64 458.56 126.61 458.56 100.15 373.25 99.06 369.75 113.8 369.75 114.17 371.61 114.17 371.61 131.64 458.56"/>
    <rect class="cls-3" x="56.76" y="405.44" width="66.33" height="5.25" rx=".49" ry=".49"/>
  </g>
  <g>
    <g>
      <path class="cls-7" d="m404.44,139s8.27,6.36,13.38,23.11c5.11,16.75,4.96,42.29,11.6,45.51,6.64,3.22,33.76,9.84,33.55,19.65-.21,9.81-25.02,6.62-39.09-.15-14.07-6.77-15.59-51.48-15.59-51.48l-3.85-36.65Z"/>
      <g>
        <path class="cls-13" d="m476.1,214.44s-9.7,15.87-20.07,17.83c-1.57.3-3.12-.57-3.75-2.03l-2.6-6.06s14.96-12.15,26.42-9.73Z"/>
        <g>
          <path class="cls-3" d="m447.87,229.09l.67.72c.35.38.9.49,1.37.27,4.34-1.98,25.4-11.64,29.12-13.69.34-.19.57-.54.61-.93l1.19-12.93c.03-.31-.07-.62-.26-.87l-.9-1.1-1.42,13.89-30.37,14.63Z"/>
          <path class="cls-10" d="m447.85,228.89l.8-12.91c.03-.51.58-1.17,1.23-1.48l28.8-13.89c.65-.31,1.15-.16,1.12.35l-.8,12.91c-.03.51-.58,1.17-1.23,1.48l-28.8,13.89c-.65.31-1.15.16-1.12-.35Z"/>
          <path class="cls-3" d="m453.62,224.4l.58-9.39c.03-.51.58-1.17,1.23-1.48l21.35-10.3c.65-.31,1.15-.16,1.12.35l-.58,9.39c-.03.51-.58,1.17-1.23,1.48l-21.35,10.3c-.65.31-1.15.16-1.12-.35Z"/>
          <path class="cls-3" d="m450.95,222.51c-1,.48-1.78.24-1.73-.54.05-.78.9-1.8,1.9-2.29,1-.48,1.78-.24,1.73.54-.05.78-.9,1.8-1.9,2.29Z"/>
        </g>
        <path class="cls-13" d="m455.01,212.32s-.59-5.22,3.08-6.57c3.67-1.35,9.99-.03,9.99-.03,1.81,2.62-2.9,3.54-8.67,4.18l-4.4,2.41Z"/>
        <g>
          <path class="cls-13" d="m462.06,224.49s2.67,2.37,4.24.93c1.57-1.44,1.09-6.45.81-8.19-.29-1.75-2.28,1.84-2.44,3.69-.1,1.09-.68,2.69-.68,2.69l-1.92.89Z"/>
          <path class="cls-13" d="m467.59,221.43s2.85,2.37,4.71.65c1.86-1.71,1.3-7.65.96-9.72-.34-2.07-2.86,2.18-2.9,4.38-.04,2.2-1,2.88-1,2.88l-1.76,1.82Z"/>
          <path class="cls-13" d="m470.54,219.98s2.52,2.09,4.16.58c1.64-1.51,1.14-6.76.84-8.59-.3-1.83-2.53,1.93-2.56,3.87-.03,1.94-.89,2.54-.89,2.54l-1.56,1.6Z"/>
          <path class="cls-13" d="m464.34,223.93s2.85,2.37,4.71.65c1.86-1.71,1.3-7.65.96-9.72-.34-2.07-2.86,2.18-2.9,4.38-.04,2.2-1,2.88-1,2.88l-1.76,1.82Z"/>
        </g>
      </g>
      <g>
        <path class="cls-6" d="m420.94,210.8c-.15,0-.31-.07-.41-.2-.18-.23-.15-.56.08-.75,2.71-2.2,6.26-3.62,6.4-3.68.27-.11.58.03.69.3.11.27-.02.58-.3.69-.04.01-3.55,1.42-6.13,3.52-.1.08-.22.12-.34.12Z"/>
        <path class="cls-6" d="m426.22,207.64c-.05,0-.11,0-.17-.03-2.49-.83-4.41-.83-4.41-.84,0,0,0,0,0,0-.29,0-.53-.24-.53-.53,0-.29.24-.53.53-.53.09,0,2.09,0,4.74.89.28.09.43.39.33.67-.07.22-.28.36-.5.36Z"/>
      </g>
    </g>
    <g>
      <g>
        <polygon class="cls-13" points="359.52 406.96 353.72 411.8 360.38 422.36 366.18 417.52 359.52 406.96"/>
        <g>
          <path class="cls-2" d="m359.66,458.19l-24.25-38.45c.34-.61.98-1.23,1.82-1.85,3.1-2.29,8.95-4.53,12.54-6.09.42-.18.81-.35,1.16-.51.59-.27,1.07-.52,1.41-.73,2.67-1.68,3.7.97,3.7.97-1.36,6.3,7.14,7.09,6.89,10.85,0,0-.1,1.61-.92,6.39-.82,4.78.64,11.12,1.58,16.71,1.21,7.21-.15,10.33-1.59,11.68-1.14,1.07-2.33,1.03-2.33,1.03Z"/>
          <path class="cls-14" d="m359.66,458.19l-24.25-38.45c.34-.61.98-1.23,1.82-1.85l24.77,39.27c-1.14,1.07-2.33,1.03-2.33,1.03Z"/>
          <g>
            <path class="cls-1" d="m361.65,423.98s2.11-.37,2.54,1.49c.43,1.86-2.19,3.3-2.19,3.3,0,0-2.87.53-.35-4.79Z"/>
            <path class="cls-1" d="m353.8,428.28c-.22-.35-.12-.81.23-1.03,3.82-2.41,7.39-1.32,7.54-1.28.39.12.61.55.49.94-.12.39-.54.61-.94.49-.13-.04-3.09-.91-6.3,1.11-.35.22-.81.12-1.03-.23Z"/>
            <path class="cls-1" d="m363.82,433.13c-.09-.15-.14-.33-.11-.52.21-1.26-1.15-3.7-2.05-4.95-.24-.34-.17-.8.17-1.05.33-.24.8-.17,1.05.17.28.38,2.69,3.8,2.32,6.07-.07.41-.45.68-.86.62-.22-.04-.4-.17-.51-.34Z"/>
            <path class="cls-1" d="m359.8,425.95c-.45-.71-1.03-1.75-1.7-3.21-.99-2.19-1.02-4.29-.08-5.48.57-.71,1.42-1.02,2.34-.83.88.18,1.59.66,2.1,1.45.01.02.02.03.03.05,1.67,2.66.59,7.83.46,8.42l-1.07-.24s.03.03.03.03l-1.17,1.12s-.38-.4-.95-1.31Zm1.33-7.16s-.01-.02-.02-.03c-.27-.42-.61-.66-1.06-.75-.33-.07-.57.01-.75.25-.46.58-.55,1.98.28,3.8.81,1.78,1.48,2.88,1.89,3.48.31-1.68.67-5.14-.34-6.75Z"/>
            <path class="cls-1" d="m362.02,427.92l.87-1.37c1.4.89,3.73,1.1,4.64.42.22-.16.44-.44.24-1.15-.14-.49-.37-.63-.56-.7-.93-.34-2.8.55-3.75,1.18l-.9-1.35c.32-.22,3.21-2.09,5.21-1.36.53.19,1.24.66,1.56,1.77.48,1.63-.31,2.52-.82,2.9-1.6,1.2-4.7.78-6.48-.35Z"/>
          </g>
          <path class="cls-14" d="m337.88,423.66l-.72-1.14c2.02.32,4.69.12,7.46-1.82,3.68-2.58,4.81-6.48,5.14-8.9.42-.18.81-.35,1.16-.51-.23,2.53-1.27,7.21-5.68,10.3-2.64,1.85-5.24,2.24-7.36,2.07Z"/>
          <path class="cls-1" d="m359.33,429.55c-.18-.28-.15-.66.09-.92.29-.3.76-.31,1.06-.02l2.11,2.03c.3.29.31.76.02,1.06-.29.3-.76.31-1.06.02l-2.11-2.03s-.08-.09-.12-.14Z"/>
          <path class="cls-1" d="m359.45,432.83c-.18-.28-.15-.66.09-.92.29-.3.76-.31,1.06-.02l2.11,2.03c.3.29.31.76.02,1.06-.29.3-.76.31-1.06.02l-2.11-2.03s-.08-.09-.12-.14Z"/>
          <path class="cls-1" d="m359.62,436.08c-.18-.28-.15-.66.09-.92.29-.3.76-.31,1.06-.02l2.11,2.03c.3.29.31.76.02,1.06-.29.3-.76.31-1.06.02l-2.11-2.03s-.08-.09-.12-.14Z"/>
          <path class="cls-1" d="m360.03,439.49c-.18-.28-.15-.66.09-.92.29-.3.76-.31,1.06-.02l2.11,2.03c.3.29.31.76.02,1.06-.29.3-.76.31-1.06.02l-2.11-2.03s-.08-.09-.12-.14Z"/>
          <path class="cls-1" d="m360.76,442.99c-.18-.28-.15-.66.09-.92.29-.3.76-.31,1.06-.02l2.11,2.03c.3.29.31.76.02,1.06-.29.3-.76.31-1.06.02l-2.11-2.03s-.08-.09-.12-.14Z"/>
        </g>
        <path class="cls-10" d="m429.82,338.93c0,.09-.02.17-.03.26,0,0-.23.42-.65,1.21-3.03,5.54-16.19,29.19-32.51,51.45-2.35,3.21-4.77,6.39-7.23,9.48-1.08,1.36-2.17,2.7-3.27,4.02-4.77,5.74-8.76,9.25-13.32,12.21-.48.31-.97.62-1.47.92-.95.58-1.92,1.14-2.93,1.69-.48.26-.97.53-1.47.79,0,0-7.28-7.72-10.66-15.19,0,0,.96-1.55,2.5-4.07.3-.49.63-1.02.97-1.59,1.04-1.7,2.26-3.7,3.57-5.89,5.93-9.82,13.92-23.3,16.91-29.57,2.19-4.58,4.78-9.65,7.69-14.65.55-.95,1.11-1.9,1.69-2.84.07-.11.13-.22.2-.33,3.95-6.46,8.36-12.59,12.97-17.11l-10.23-61.77-.64-3.88,23.16-8.08,1.32-.46,5.52-1.92s.43,2.03,1.1,5.52c.08.42.17.86.25,1.33,3.01,15.85,9.72,55.47,6.57,78.44Z"/>
        <path class="cls-3" d="m372.8,417.56c-.48.31-.97.62-1.47.92l-8.91-11.89-.82-1.1-2.83-3.78c.3-.49.63-1.02.97-1.59l2.77,3.7.82,1.1,9.47,12.63Z"/>
        <path class="cls-3" d="m429.82,338.92c0,.09-.02.17-.03.26,0,0-.23.42-.65,1.21-5.24-1-9.26-3.61-9.5-3.77-.36-.24-.46-.72-.22-1.08.24-.36.72-.46,1.08-.22.06.04,4.16,2.7,9.33,3.6Z"/>
        <path class="cls-3" d="m408.8,331.92c-.11.11-11.76,11.6-45.47,73-.3.55-.6,1.11-.91,1.66l-.82-1.1c.31-.56.61-1.11.91-1.66,31.28-56.93,43.25-70.54,45.16-72.54-2.69-10.1-10.85-61.81-11.2-64.03-.05-.34.18-.66.52-.72.34-.05.66.18.71.52.09.55,8.7,55.13,11.26,64.24.06.22,0,.46-.17.62Z"/>
      </g>
      <g>
        <path class="cls-10" d="m353.89,238.24s-1.8,16.51,1.92,25.72c3.72,9.21,52.38,4.66,64.8-3.57,5.1-3.37-5.61-34.73-5.61-34.73l-61.11,12.59Z"/>
        <path class="cls-3" d="m423.25,260.49c-.74-.13-1.45-.32-2.15-.56-1.11-.38-2.18-.9-3.19-1.56-1.05-.68-2-1.48-2.85-2.34-5.34-5.43-6.89-13.61-6.96-14.01-.06-.34.16-.66.5-.73.34-.06.67.16.73.5.02.1,1.63,8.61,7.05,13.77.68.65,1.41,1.24,2.21,1.76.96.63,1.98,1.11,3.05,1.47.44.15.9.27,1.36.37.08.42.17.86.25,1.33Z"/>
        <path class="cls-3" d="m393.22,264.99c.01.33-.25.61-.59.63t0,0c-.34.02-.64-.24-.65-.57-.1-2.26-.23-4.57-.36-6.88-.02-.41-.05-.81-.07-1.22-.46-7.55-1.06-14.96-1.51-20.19-.04-.42-.07-.83-.11-1.23-.1-1.15-.19-2.17-.27-3.03.41-.06.83-.13,1.24-.2.08.86.17,1.89.27,3.05.04.39.07.8.11,1.23.45,5.19,1.04,12.53,1.5,20.04.03.41.05.83.08,1.24.14,2.39.27,4.79.38,7.13Z"/>
        <path class="cls-3" d="m395.03,257.03c-.2.09-1.07.5-2.18.83-.39.12-.81.22-1.23.31-.39.07-.79.13-1.18.15-.76.04-1.49-.04-2.09-.34-.76-.37-1.25-1.03-1.41-1.91-.45-2.33-1.36-11.95-1.98-18.75-.04-.42-.08-.83-.11-1.22-.1-1.09-.18-2.08-.26-2.92.41-.05.83-.1,1.24-.15.07.85.16,1.85.26,2.95.04.39.07.8.11,1.22.62,6.79,1.53,16.39,1.96,18.65.1.52.34.86.75,1.06.66.32,1.65.26,2.64.04.42-.09.84-.21,1.23-.33.72-.23,1.34-.49,1.72-.66.31-.15.68-.02.83.27.15.3.02.66-.29.81Z"/>
      </g>
      <g>
        <polygon class="cls-13" points="373.52 428.98 374.72 438.77 387.2 438.82 387.97 428.52 373.52 428.98"/>
        <path class="cls-10" d="m389.93,259.38l-.63,168.04-.19,2.66-18.54-.07c-.19-1.21-.63-3.17-1.21-5.7-.13-.55-.26-1.13-.4-1.73-2.38-10.29-6.45-27.82-7.12-43.06-.96-21.76-.56-49.94-.56-49.94-2.05-16.17-5.24-51.2-6.83-69.13-.04-.43-.07-.84-.11-1.25-.53-6.02-.86-9.81-.86-9.81,2.99-1.23,8.4-.36,14.15,1.3.42.12.83.24,1.25.37,10.22,3.1,21.05,8.32,21.05,8.32Z"/>
        <path class="cls-3" d="m389.31,422.66v1.73s-19.96-.08-19.96-.08c-.13-.55-.26-1.13-.4-1.73l20.35.08Z"/>
        <path class="cls-3" d="m389.65,333.47v1.6c-2.18.54-4.66.71-6.99.7-4.29-.02-8.05-.64-8.31-.69-.42-.07-.71-.47-.63-.9.07-.42.47-.71.89-.64.1.02,9.17,1.53,15.03-.09Z"/>
        <g>
          <path class="cls-3" d="m372.46,424.33h-1.27c-.1-.54-.21-1.12-.32-1.73-1.61-8.71-4.54-24.99-6.06-35.56-2.12-14.75-.95-55.64-.9-57.23-1.6-14.07-4.77-62.25-4.8-62.73-.02-.35.24-.64.58-.67.35-.02.64.24.66.58.03.49,3.21,48.74,4.8,62.72,0,.03,0,.06,0,.09-.01.42-1.25,42.2.88,57.06,1.53,10.64,4.5,27.1,6.09,35.74.11.62.22,1.2.32,1.73Z"/>
          <path class="cls-5" d="m368.91,297.2c.97,0,1.98-.16,3.02-.48,13.31-4.14,7.12-37.74,6.85-39.17-.08-.45-.52-.74-.97-.66-.45.08-.74.52-.66.97.02.08,1.61,8.61,1.63,17.49.02,7.98-1.24,17.89-7.35,19.79-2.52.78-4.71.44-6.69-1.05-6.08-4.57-9-19.84-8.75-32.56,0-.46-.35-.83-.81-.84,0,0,0,0-.01,0-.45,0-.82.36-.83.81-.13,6.39.55,13.35,1.87,19.09,1.15,5.04,3.4,11.7,7.54,14.82,1.58,1.18,3.3,1.78,5.15,1.79Z"/>
        </g>
        <g>
          <g>
            <path class="cls-2" d="m391.89,455.53c0,.11,0,.22,0,.33-.01.5-.04.95-.06,1.33-.05.85-.12,1.37-.12,1.37l-28.13-.11s-.13-1.09-.02-2.7c.2-2.87,1.17-7.41,5.06-10.4,5.33-4.09,3.28-3.24,4.38-5.11.12-.21,1.09-3.39,1.2-3.61.92-1.94,1.77-2.86,6.81-2.84,6.68.03,7.26,3.27,7.97,4.98.29.71.69,2.2,1.1,3.97.17.71.33,1.47.49,2.25.4,1.94.78,3.97,1.04,5.58.27,1.73.32,3.51.3,4.95Z"/>
            <path class="cls-14" d="m391.89,455.53c0,.11,0,.22,0,.33-.01.5-.04.95-.06,1.33-1.37-.97-2.34-2.24-2.91-3.8-1.72-4.75.98-10.43,1.09-10.67l.06.03c.17.71.33,1.47.49,2.25-.64,1.93-1.38,5.18-.38,7.94.37,1,.94,1.87,1.71,2.59Z"/>
            <path class="cls-14" d="m391.89,455.86c-.04,1.6-.18,2.7-.18,2.7l-28.13-.11s-.13-1.09-.02-2.7l28.33.11Z"/>
          </g>
          <g>
            <path class="cls-1" d="m378.02,437.9c-.11,0-.22-.02-.33-.07-.71-.32-6.97-3.26-7.45-6.31-.09-.61-.02-1.51.9-2.34.87-.79,1.72-.78,2.28-.63,2.84.76,4.96,7.06,5.36,8.31.1.3,0,.63-.23.84-.15.13-.34.2-.54.2Zm-5.19-7.83c-.16,0-.35.06-.61.29-.42.38-.43.69-.4.91.2,1.29,2.58,2.99,4.76,4.2-.98-2.45-2.41-5.06-3.57-5.37-.06-.01-.12-.03-.18-.03Z"/>
            <path class="cls-1" d="m379.39,437.9c-.19,0-.38-.07-.53-.21-.24-.21-.32-.54-.23-.85.41-1.25,2.58-7.53,5.42-8.27.56-.15,1.41-.15,2.28.65.91.84.98,1.74.88,2.35-.5,3.04-6.78,5.93-7.5,6.25-.11.05-.22.07-.33.07Zm5.25-7.79c-.07,0-.13.01-.18.03-1.16.3-2.61,2.9-3.61,5.35,2.18-1.19,4.58-2.88,4.79-4.16.04-.22.03-.53-.39-.91-.25-.23-.44-.3-.6-.3Z"/>
            <path class="cls-1" d="m378.69,435.56s-1.31-.62-1.42,1.17c-.09,1.46.95,1.77,1.37,1.53,0,0,.89.27,1.34-.44s.16-2.97-1.29-2.26Z"/>
            <path class="cls-1" d="m372.92,440.44c-.17,0-.33-.05-.48-.16-.35-.27-.43-.77-.16-1.12,2.54-3.39,6.44-2.63,6.6-2.6.43.09.71.51.62.95-.09.43-.51.71-.94.63-.13-.03-3.08-.57-5,1.99-.16.21-.4.32-.65.32Z"/>
            <path class="cls-1" d="m385.21,441.3c-.3,0-.6-.18-.73-.47-1.29-2.86-5.82-3.57-5.87-3.58-.44-.07-.74-.47-.67-.91.07-.44.47-.74.91-.67.22.03,5.45.86,7.1,4.51.18.4,0,.88-.4,1.06-.11.05-.22.07-.33.07Z"/>
          </g>
          <path class="cls-1" d="m381.89,442.57c-.07,0-.13,0-.2-.03-3.57-.94-6.49-.17-6.52-.16-.43.12-.87-.14-.98-.56-.12-.43.14-.87.56-.98.14-.04,3.37-.89,7.35.16.43.11.68.55.57.98-.1.36-.42.6-.78.6Z"/>
          <path class="cls-1" d="m380.68,445.1c-.07,0-.13,0-.2-.03-3.55-.93-6.49-.17-6.52-.16-.43.12-.87-.14-.98-.57-.12-.43.14-.87.56-.98.14-.04,3.37-.89,7.35.16.43.11.68.55.57.98-.09.36-.42.6-.78.6Z"/>
          <path class="cls-1" d="m379.26,447.99c-.07,0-.13,0-.2-.03-3.55-.93-6.49-.17-6.52-.16-.43.12-.87-.14-.98-.56-.12-.43.14-.87.56-.98.14-.04,3.37-.89,7.35.15.43.11.68.55.57.98-.1.36-.42.6-.78.6Z"/>
        </g>
        <path class="cls-3" d="m372.36,241.88c-.06.29-.93,4.72-3.48,9.18-1.51,2.63-3.6,5.28-6.45,7.1-2.4,1.53-5.07,2.3-7.98,2.3-.04-.43-.07-.84-.11-1.25,2.72.01,5.2-.69,7.42-2.1,2.55-1.63,4.46-4.01,5.87-6.41,2.6-4.44,3.5-8.98,3.51-9.05.06-.34.39-.56.73-.5.34.07.56.39.5.73Z"/>
      </g>
    </g>
    <g>
      <path class="cls-1" d="m353.01,252.7l-1.58,9.41s17.8,4.05,29.04,1.21c11.24-2.84,38.34-5.44,42.97-5.61l-2.92-12.54s-34.79,10.82-67.51,7.53Z"/>
      <path class="cls-7" d="m391.53,134.83s6.67-13.42-7.36-20.94c-9.81-5.26-28.79-6.28-34.63,5.64-5.43,11.09,6.65,20.48,6.65,20.48,0,0,25.93,5.65,35.33-5.19Z"/>
      <path class="cls-10" d="m368.71,119.17s-12.16,1.61-7.78,8.1c2.32,3.44,15.47,5.36,15.47,5.36,0,0,2.62-11.87-7.7-13.46Z"/>
      <path class="cls-7" d="m419.12,241.86s-45.06,14.94-64.42,7.32c0,0-6.07-1.91-8.47-13.83-.08-.39-.15-.79-.22-1.2-1.01-5.89-1.13-14.05.62-25.28,2.1-13.48-.71-20.38-1.87-33.82-.04-.47-.08-.95-.12-1.44-.12-1.45-.24-2.98-.35-4.61-1.24-17.74-6.85-25.34,2-30.57,8.86-5.23,20.46-9.22,20.46-9.22,0,0,9.85,3.17,16.81.06,0,0,10.55,5.22,18.67,8.21,8.11,2.99,5.36,24.46,7.88,36.8,2.52,12.34,6.82,22.17,10.66,42.64,3.51,18.72-1.64,24.95-1.64,24.95Z"/>
      <path class="cls-6" d="m384.59,139.85c-.24,0-.45-.17-.5-.42-.05-.27.14-.54.41-.58,4.68-.82,6.98-5.23,7-5.28.13-.25.43-.35.68-.22.25.13.35.43.22.68-.1.2-2.56,4.9-7.73,5.81-.03,0-.06,0-.09,0Z"/>
      <polygon class="cls-6" points="368.72 165.13 369.63 175.52 399.38 173.27 397.53 163.59 368.72 165.13"/>
      <path class="cls-6" d="m420.28,215.09c-.34,0-.62-.26-.64-.6-.36-5.16-4.23-18.27-6.55-26.1-.45-1.52-.84-2.84-1.12-3.82-1.68-5.87-3.56-19.65-3.64-20.24-.05-.35.2-.68.55-.73.36-.05.68.2.73.55.02.14,1.94,14.28,3.6,20.05.28.97.67,2.29,1.12,3.81,2.33,7.88,6.23,21.08,6.6,26.38.02.36-.24.67-.6.69-.02,0-.03,0-.05,0Z"/>
      <path class="cls-6" d="m421.41,235.63s1.9,5.89-.83,9.84c0,0-40.48,13.88-67.57,7.23,0,0-2.43-2.95-3.09-8.99,0,0,32.58,8.23,71.49-8.08Z"/>
      <path class="cls-6" d="m379.92,150.17c7.49.03,9.87-6.68,9.89-6.75.09-.26-.05-.54-.31-.62-.26-.09-.54.05-.62.31h0c-.09.27-2.34,6.55-9.71,6.06-7.66-.51-17.48-5.61-17.58-5.66-.24-.13-.54-.03-.66.21-.13.24-.03.54.21.66.41.21,10.1,5.25,17.97,5.77.28.02.55.03.81.03Z"/>
      <path class="cls-6" d="m409.7,210.8s5.75,11.36,3.81,20.19c0,0-21.61,10.03-47.09,4.81,0,0,.59-11.07-.38-21.19,0,0,27.95-4.12,43.65-3.82Z"/>
    </g>
    <g>
      <g>
        <path class="cls-13" d="m383.91,125.75l-.46,4.45c-.56.37-1.21.54-1.69.94-5.38,4.51-12.4-.45-15.97-4.03l1.61-14.14,14.54,11.26,1.97,1.52Z"/>
        <path class="cls-10" d="m383.91,125.75l-.46,4.45c-.56.37-1.13.68-1.69.94-6.31-3.28-10.39-10.67-10.39-10.67l10.56,3.75,1.97,1.52Z"/>
        <g>
          <path class="cls-5" d="m363.84,101.51s-2.3-2.68-2.82-5.78c-.52-3.1,2.66-5.11,2.66-5.11,0,0-1.5-2.15.3-4.92,1.98-3.05,6.81-2.74,6.81-2.74,0,0-1.05-2.57,2.16-4.32,3.21-1.75,6.51,1.08,6.51,1.08,0,0,1.11-3.09,4.65-3.25,3.54-.16,4.3,3.37,4.3,3.37,0,0,7.51-3.21,10.86,1.63,4.92,7.1-5.76,11.09-5.76,11.09-16.92-5.71-28.85,9.81-28.85,9.81l-.81-.87"/>
          <path class="cls-5" d="m389.94,89.1s11.81,6.77,3.88,15.74c0,0-4.43-12.82-3.88-15.74Z"/>
          <path class="cls-4" d="m391.49,106.61s2.83-2.73,3.95.41-.6,9.06-4.34,7.68l.38-8.08Z"/>
          <path class="cls-13" d="m393.11,117.35s-.93,9.2-10.49,8.2c-9.5-.99-15.22-9.12-15.52-9.5,0,0,0,0,0,0l.09-1.94.49-10.09.26-5.39s-.22-9.78,9.13-10.6c6.84-.6,13.01,1.16,15.82,4.98,1.04,1.41,1.62,3.1,1.6,5.06l-.69,9.66-.17,2.37-.52,7.27Z"/>
          <path class="cls-10" d="m384.99,109.79c-.12,0-.24-.08-.29-.2-.06-.16.03-.33.18-.39l2.85-1.01-1.64-1.48c-.06-.06-.1-.14-.1-.22v-6.11c0-.17.14-.3.3-.3s.3.14.3.3v5.98l1.91,1.73c.08.07.11.18.09.28-.02.1-.1.19-.2.23l-3.33,1.17s-.07.02-.1.02Z"/>
          <path class="cls-4" d="m383.32,116.42c-1.19-.31-1.97-.99-2.02-1.04-.16-.15-.18-.4-.03-.56.15-.16.39-.18.56-.03h0s1.53,1.33,3.45.89c.21-.05.42.08.47.29.05.21-.08.42-.29.47-.79.19-1.52.13-2.13-.03Z"/>
          <path class="cls-10" d="m384.98,114.38c-3.14-.18-4.43-2.79-4.45-2.82-.11-.22-.01-.49.21-.6.22-.11.49-.01.59.21h0c.06.13,1.63,3.24,5.75,2.06.24-.07.48.07.55.31.07.24-.07.48-.31.55-.88.25-1.66.33-2.36.29Z"/>
          <path class="cls-5" d="m384.34,99.12c.9-1.06.18-2.38-1.32-2.66-1.64-.31-5.01-.63-6.06,1.65-1.4,3.05,3.6,2.27,5.71,1.9.74-.13,1.31-.47,1.67-.89Z"/>
          <path class="cls-5" d="m388.91,99.66c-.55-1.11.27-2.35,1.52-2.5,1.38-.17,4.15-.2,4.61,2.12.61,3.1-3.3,1.93-4.94,1.39-.57-.19-.97-.57-1.19-1.01Z"/>
          <path class="cls-5" d="m392.89,92.99c-.1.32-.27.58-.5.78-2.06,1.76-6.38.62-10.32-1.06-3.94-1.67-7.1.99-7.1.99.73,4.01-3.13,3.94-2.62,6.97.52,3.04-.2,6.9-.2,6.9l-2.36-.56c-.37-1.44-1.45-3.05-4.11-3.92-2.84.23-2.41-5.59-.5-10.03,0,0,2.54-4.24,11.89-5.06,6.84-.6,13.01,1.16,15.82,4.98Z"/>
          <path class="cls-4" d="m381.21,107.62c-.07.67-1.5,1.07-3.2.9-1.7-.17-3.02-.86-2.96-1.53.07-.67,1.5-1.07,3.2-.9,1.7.17,3.02.86,2.96,1.53Z"/>
          <g class="cls-8">
            <path class="cls-4" d="m393.63,110.08c-.24,0-.49-.01-.75-.04-1.7-.17-3.02-.86-2.95-1.53.07-.67,1.5-1.07,3.2-.9.23.02.45.06.67.1l-.17,2.37Z"/>
          </g>
          <g>
            <path class="cls-10" d="m382.14,103.99c-.09.92-.59,1.62-1.1,1.57-.51-.05-.86-.84-.76-1.76.09-.92.59-1.62,1.1-1.57.51.05.86.84.76,1.76Z"/>
            <path class="cls-10" d="m391.24,104.92c-.09.92-.59,1.62-1.1,1.57-.51-.05-.85-.84-.76-1.76.09-.92.59-1.62,1.1-1.57.51.05.86.84.76,1.76Z"/>
          </g>
          <path class="cls-10" d="m370.48,112.62c-.05.1-1.55,2.78-3.38,3.42,0,0,0-.01,0-.01l.09-1.94s1.54-.1,3.29-1.47Z"/>
          <path class="cls-13" d="m369.45,106.06s-3.17-5.32-6.26-1.71c-2.55,2.97.79,11.74,5.48,9.33l.78-7.62Z"/>
          <path class="cls-1" d="m365.1,111.73c-.05.47.29.89.76.93.47.05.89-.29.93-.76.05-.47-.29-.89-.76-.93-.47-.05-.89.29-.93.76Z"/>
          <path class="cls-10" d="m368.32,112.14s.03,0,.04,0c.21,0,.38-.17.38-.38-.03-4.25-3.41-6.06-3.56-6.14-.19-.1-.42-.03-.51.16-.1.19-.03.42.16.51h0c.13.07,3.12,1.69,3.15,5.47,0,.2.15.36.34.38Z"/>
          <path class="cls-10" d="m365.02,109.48c.08,0,.17-.01.25-.06h0c.36-.23,1.42-.79,2.06-.55.2.07.42-.03.49-.23.07-.2-.03-.42-.23-.49-1.11-.41-2.57.52-2.74.63-.18.12-.22.35-.11.53.07.1.17.16.28.17Z"/>
          <g>
            <path class="cls-1" d="m399.52,105.62l-5.6-.38-.08.78s0,0,.01,0l5.62.38c.21.01.4-.15.41-.36.01-.21-.14-.41-.36-.41Z"/>
            <g>
              <path class="cls-1" d="m378.35,109.85c-3.48-.36-6.02-3.48-5.66-6.96.36-3.48,3.48-6.02,6.96-5.66,3.48.36,6.02,3.48,5.66,6.96-.36,3.48-3.48,6.02-6.96,5.66Zm1.22-11.88c-3.07-.31-5.82,1.93-6.14,4.99-.31,3.07,1.93,5.82,4.99,6.14,3.07.31,5.82-1.93,6.14-4.99.31-3.07-1.93-5.82-4.99-6.14Z"/>
              <path class="cls-1" d="m393.26,111.37c-3.48-.36-6.02-3.48-5.66-6.96.36-3.48,3.48-6.02,6.96-5.66,3.48.36,6.02,3.48,5.66,6.96-.36,3.48-3.48,6.02-6.96,5.66Zm1.22-11.88c-3.07-.31-5.82,1.93-6.14,4.99-.31,3.07,1.93,5.82,4.99,6.14,3.07.31,5.82-1.93,6.14-4.99.31-3.07-1.93-5.82-4.99-6.14Z"/>
              <path class="cls-1" d="m365.13,103.44s-.09-.02-.13-.04c-.18-.09-.26-.32-.17-.5,2.11-4.18,8.5-1.27,8.56-1.24.19.09.27.31.18.5-.09.19-.31.27-.5.18-.06-.03-5.79-2.63-7.58.9-.07.14-.22.22-.37.2Z"/>
            </g>
          </g>
          <path class="cls-1" d="m388.11,103.48c-.1,0-.19-.06-.25-.14-.93-1.16-2.59-.43-2.61-.42-.19.08-.41,0-.5-.19-.09-.19,0-.41.19-.5.76-.34,2.47-.65,3.5.63.13.16.1.4-.06.53-.08.06-.18.09-.27.08Z"/>
        </g>
      </g>
      <g>
        <path class="cls-7" d="m365.76,126.5s8.74,6.46,11.28,6.44c0,0-3.33,3.8-8.57,4.3-6.87.65-18.45-.89-18.45-.89,0,0,8.56-6.64,15.73-9.85Z"/>
        <path class="cls-6" d="m364.2,140.93c-7.07,0-12.31-4.78-12.54-4.99-.2-.19-.22-.51-.03-.71.19-.2.51-.22.71-.03.05.05,5.4,4.9,12.26,4.71.28-.01.51.21.52.49,0,.28-.21.51-.49.52-.15,0-.29,0-.44,0Z"/>
        <path class="cls-7" d="m383.93,126.72s-1.73,5-6.88,6.23c0,0,1.13,4.7,6.35,3.98,5.21-.72,8.13-3.7,8.13-3.7,0,0-3.48-6.5-7.6-6.51Z"/>
        <path class="cls-1" d="m376.73,218.59c.2,0,.36-.15.37-.35,1.7-33.98-7.61-84.99-7.71-85.5-.04-.2-.23-.33-.43-.3-.2.04-.33.23-.3.43.09.51,9.39,51.44,7.7,85.33-.01.2.15.38.35.39,0,0,.01,0,.02,0Z"/>
        <path class="cls-1" d="m399.44,216.39s0,0,.01,0c.2,0,.36-.17.36-.38-1.08-41.04-14.86-82.97-15-83.39-.06-.19-.27-.3-.47-.23-.19.06-.3.27-.23.47.14.42,13.88,42.24,14.96,83.17,0,.2.17.36.37.36Z"/>
      </g>
    </g>
    <g>
      <path class="cls-7" d="m366.35,236.45s-21.47,2.78-35.79-6.47c-8.13-5.25-13.96-14.38-12.25-30.11.03-.24.05-.48.08-.72,4.23-34.73,20.24-53.35,25.9-58.95,1.66-1.64,3.99-2.48,6.3-2.14,6.45.95,10.47,10.44-1.79,54.71-4.6,21.83,16.52,24.48,16.52,24.48l1.03,19.19Z"/>
      <g>
        <path class="cls-6" d="m348.16,197.79c-.07,0-.14-.02-.21-.04-.35-.13-.52-.51-.4-.86.1-.26,9.61-26.13,10.31-39.97.02-.37.33-.64.7-.63.37.02.65.33.63.7-.71,14.05-10.29,40.1-10.39,40.36-.1.28-.37.45-.65.44Z"/>
        <path class="cls-6" d="m357.01,167.92c-.12,0-.24-.04-.35-.11-.31-.21-.39-.62-.18-.93l4.16-6.17c.21-.31.62-.39.93-.18.31.21.39.62.18.93l-4.16,6.17c-.13.2-.36.3-.58.29Z"/>
      </g>
      <path class="cls-6" d="m361.77,237.7c-.26-.01-.5-.17-.6-.43-2.22-5.84-1.01-22.04-.96-22.73.03-.37.35-.64.72-.62.37.03.64.35.62.72-.01.17-1.24,16.59.88,22.15.13.35-.04.73-.39.86-.09.03-.18.05-.26.04Z"/>
      <path class="cls-6" d="m366.99,236.28c-.09-.36-.46-.57-.82-.48-.09.03-9,2.32-18.88-.28-.46-.12-.89.27-.82.74,0,0,0,0,0,.01.04.26.23.48.48.54,3.04.8,5.96,1.16,8.58,1.27,6.19.25,10.7-.92,10.97-.99.36-.09.57-.46.47-.82Z"/>
      <path class="cls-6" d="m361.16,215.28c-.27-.01-.55-.03-.84-.06-2.86-.3-6.97-1.72-10.34-6.8-.2-.31-.12-.72.19-.93.31-.2.72-.12.93.19,5.87,8.86,14.13,5.73,14.21,5.7.34-.14.73.03.87.38.14.34-.03.73-.38.87-.09.03-1.98.76-4.64.66Z"/>
      <path class="cls-6" d="m330.56,229.98c-8.13-5.25-13.96-14.38-12.25-30.11,5.6,6.72,14.54,19.46,12.25,30.11Z"/>
    </g>
    <g>
      <rect class="cls-2" x="447.81" y="167.76" width="24.23" height="24.23" rx="1.82" ry="1.82"/>
      <path class="cls-1" d="m456.23,186.39c-.07,0-.13,0-.2-.02-.33-.06-.61-.27-.76-.56l-2.18-4.16c-.28-.53-.07-1.18.46-1.46.53-.28,1.18-.07,1.46.46l1.53,2.94,10.26-9.1c.45-.4,1.13-.36,1.53.09s.36,1.13-.09,1.53l-11.29,10.02c-.2.18-.46.27-.72.27Z"/>
      <path class="cls-2" d="m451.78,191.82l.85,5.48c.14.92,1.36,1.15,1.83.34l3.36-5.84-6.03.03Z"/>
    </g>
  </g>
</svg>